<svg width="324" height="162" viewBox="0 0 324 162" fill="none" xmlns="http://www.w3.org/2000/svg">
<path d="M2.34363e-05 162C2.53144e-05 119.035 17.0678 77.8296 47.4487 47.4487C77.8296 17.0678 119.035 -1.01545e-05 162 -7.08124e-06C204.965 -4.00797e-06 246.17 17.0678 276.551 47.4487C306.932 77.8296 324 119.035 324 162L194.4 162C194.4 153.407 190.986 145.166 184.91 139.09C178.834 133.014 170.593 129.6 162 129.6C153.407 129.6 145.166 133.014 139.09 139.09C133.014 145.166 129.6 153.407 129.6 162L2.34363e-05 162Z" fill="url(#paint0_linear_1_1744)"/>
<defs>
<linearGradient id="paint0_linear_1_1744" x1="324" y1="162" x2="2.34363e-05" y2="162" gradientUnits="userSpaceOnUse">
<stop stop-color="#FACD3C"/>
<stop offset="1" stop-color="#E98405"/>
</linearGradient>
</defs>
</svg>
