<svg width="22" height="22" viewBox="0 0 22 22" fill="none" xmlns="http://www.w3.org/2000/svg">
<path d="M11 0C9.0691 -2.30258e-08 7.17221 0.508269 5.5 1.47372C3.82779 2.43917 2.43917 3.82779 1.47372 5.5C0.508269 7.17221 -6.13767e-08 9.0691 0 11C6.13767e-08 12.9309 0.508269 14.8278 1.47372 16.5L4.3316 14.85C3.65579 13.6795 3.3 12.3516 3.3 11C3.3 9.64837 3.65579 8.32055 4.3316 7.15C5.00742 5.97945 5.97945 5.00742 7.15 4.3316C8.32055 3.65579 9.64837 3.3 11 3.3V0Z" fill="#151515"/>
<path d="M11 22C12.9309 22 14.8278 21.4917 16.5 20.5263C18.1722 19.5608 19.5608 18.1722 20.5263 16.5C21.4917 14.8278 22 12.9309 22 11C22 9.0691 21.4917 7.17221 20.5263 5.5L17.6684 7.15C18.3442 8.32055 18.7 9.64837 18.7 11C18.7 12.3516 18.3442 13.6795 17.6684 14.85C16.9926 16.0205 16.0205 16.9926 14.85 17.6684C13.6795 18.3442 12.3516 18.7 11 18.7L11 22Z" fill="#151515"/>
</svg>
